<svg xmlns="http://www.w3.org/2000/svg" viewBox="0 0 512 512"><title>Exotic / Sparkles</title><g opacity="0.252490234375"><g transform="translate(120 360)"><g transform="rotate(0)"><g transform="scale(0.32 0.32)"><path d="M0.000,-45.000 C0.000,-45.000 9.000,-9.000 9.000,-9.000 C9.000,-9.000 45.000,0.000 45.000,0.000 C45.000,0.000 9.000,9.000 9.000,9.000 C9.000,9.000 0.000,45.000 0.000,45.000 C0.000,45.000 -9.000,9.000 -9.000,9.000 C-9.000,9.000 -45.000,0.000 -45.000,0.000 C-45.000,0.000 -9.000,-9.000 -9.000,-9.000 Z" fill="#d6b76b" fill-rule="evenodd"></path></g></g></g></g><g opacity="0.2"><g transform="translate(380 330)"><g transform="rotate(0)"><g transform="scale(0.45 0.45)"><path d="M0.000,-45.000 C0.000,-45.000 9.000,-9.000 9.000,-9.000 C9.000,-9.000 45.000,0.000 45.000,0.000 C45.000,0.000 9.000,9.000 9.000,9.000 C9.000,9.000 0.000,45.000 0.000,45.000 C0.000,45.000 -9.000,9.000 -9.000,9.000 C-9.000,9.000 -45.000,0.000 -45.000,0.000 C-45.000,0.000 -9.000,-9.000 -9.000,-9.000 Z" fill="#d6b76b" fill-rule="evenodd"></path></g></g></g></g><g opacity="0.2"><g transform="translate(250 290)"><g transform="rotate(0)"><g transform="scale(1.0 1.0)"><path d="M0.000,-45.000 C0.000,-45.000 9.000,-9.000 9.000,-9.000 C9.000,-9.000 45.000,0.000 45.000,0.000 C45.000,0.000 9.000,9.000 9.000,9.000 C9.000,9.000 0.000,45.000 0.000,45.000 C0.000,45.000 -9.000,9.000 -9.000,9.000 C-9.000,9.000 -45.000,0.000 -45.000,0.000 C-45.000,0.000 -9.000,-9.000 -9.000,-9.000 Z" fill="#d6b76b" fill-rule="evenodd"></path></g></g></g></g><g opacity="0.2"><g transform="translate(325 170)"><g transform="rotate(0)"><g transform="scale(0.4 0.4)"><path d="M0.000,-45.000 C0.000,-45.000 9.000,-9.000 9.000,-9.000 C9.000,-9.000 45.000,0.000 45.000,0.000 C45.000,0.000 9.000,9.000 9.000,9.000 C9.000,9.000 0.000,45.000 0.000,45.000 C0.000,45.000 -9.000,9.000 -9.000,9.000 C-9.000,9.000 -45.000,0.000 -45.000,0.000 C-45.000,0.000 -9.000,-9.000 -9.000,-9.000 Z" fill="#d6b76b" fill-rule="evenodd"></path></g></g></g></g><g opacity="0.2"><g transform="translate(130 155)"><g transform="rotate(0)"><g transform="scale(0.7 0.7)"><path d="M0.000,-45.000 C0.000,-45.000 9.000,-9.000 9.000,-9.000 C9.000,-9.000 45.000,0.000 45.000,0.000 C45.000,0.000 9.000,9.000 9.000,9.000 C9.000,9.000 0.000,45.000 0.000,45.000 C0.000,45.000 -9.000,9.000 -9.000,9.000 C-9.000,9.000 -45.000,0.000 -45.000,0.000 C-45.000,0.000 -9.000,-9.000 -9.000,-9.000 Z" fill="#d6b76b" fill-rule="evenodd"></path></g></g></g></g></svg>